<svg id="b53a0a66-421f-4b53-95ba-14c799b4c77e" data-name="Layer 1" xmlns="http://www.w3.org/2000/svg" viewBox="0 0 55.86998 29.08098"><defs><style>.f9ecb6d1-16aa-48bb-856d-165129850a73{fill:none;stroke:#424143;stroke-linecap:round;stroke-linejoin:round;stroke-width:3.88542px;}.a63f1e21-8481-40fc-86ae-361837803681{fill:#424143;}</style></defs><polyline class="f9ecb6d1-16aa-48bb-856d-165129850a73" points="41.329 27.138 53.927 14.54 41.329 1.943"/><path class="a63f1e21-8481-40fc-86ae-361837803681" d="M5.29755,13.60331V18.032H.05438V11.37186H3.28192Q5.29755,11.37186,5.29755,13.60331Zm-.92383,3.69726V13.56815a1.56333,1.56333,0,0,0-.33594-1.12207,1.287,1.287,0,0,0-.96-.34277H.97821v5.19726Z"/><path class="a63f1e21-8481-40fc-86ae-361837803681" d="M9.78583,13.5076a2.5177,2.5177,0,0,1,.32422-1.40429H6.7497v-.73145h5.13672v.73145h-.88868a2.81626,2.81626,0,0,0-.28808,1.40429V18.032H9.78583Z"/><path class="a63f1e21-8481-40fc-86ae-361837803681" d="M13.48114,12.77616l-.15527-1.4043H14.238l.168,1.4043V18.032h-.92481Z"/><path class="a63f1e21-8481-40fc-86ae-361837803681" d="M17.87372,17.30057a3.02107,3.02107,0,0,0,1.06836-.30078,1.75344,1.75344,0,0,0,.71973-.792,4.19558,4.19558,0,0,0,.36035-1.584l.2041-2.5205H15.906v-.73145h5.30371l-.03516.66016-.19238,2.41211a4.18368,4.18368,0,0,1-.88184,2.63965,2.85518,2.85518,0,0,1-2.12988.94824Zm-1.94336-2.67676.13184-.81542h.792v6.623h-.92383Z"/><path class="a63f1e21-8481-40fc-86ae-361837803681" d="M22.54169,14.79178l.13184-.80371h.792V18.032h-.92383Zm4.11621-1.22363a1.56333,1.56333,0,0,0-.33594-1.12207,1.287,1.287,0,0,0-.96-.34277H22.55438v-.73145H25.5661q2.01563,0,2.01563,2.23145V18.032H26.6579Z"/></svg>