<svg xmlns="http://www.w3.org/2000/svg" xmlns:xlink="http://www.w3.org/1999/xlink" viewBox="0 0 46.8982 46.85638"><defs><style>.a{fill:none;}.b{fill:#21409a;}.c{clip-path:url(#a);}.d{fill:#f3f3f3;}.e{fill:#59b6d7;}.f{fill:#097296;}.g{fill:#08425c;}.h{fill:#106189;}.i{fill:#beb235;}.j{fill:#279b58;}.k{fill:#17a75a;}.l{fill:#c2b622;}.m{fill:#2b824c;}.n{fill:#5ba777;}.o{fill:#beb715;}.p{fill:#4cb0d4;}.q{fill:#308940;}.r{fill:#71a3ba;}.s{fill:#5b5b41;}.t{fill:#077296;}.u{fill:#216731;}.v{fill:#9ddad5;}.w{fill:#227a30;}.x{fill:#504820;}.y{fill:#5bb4da;}.z{fill:#119b3d;}.aa{fill:#1d8a3f;}.ab{fill:#158731;}.ac{fill:#629c95;}.ad{fill:#48b7f9;}.ae{fill:#857b16;}.af{fill:#54abbe;}.ag{fill:#35937f;}.ah{fill:#07435d;}.ai{fill:#001535;}.aj{fill:#516e29;}.ak{fill:#499f8d;}.al{fill:#d6c4bd;}.am{fill:#027b21;}.an{fill:#c3b535;}.ao{fill:#64b9e6;}.ap{fill:#0eab41;}.aq{fill:#92820d;}</style><clipPath id="a"><circle class="a" cx="23.4491" cy="23.4491" r="23.4491"/></clipPath></defs><circle class="b" cx="23.4491" cy="23.4491" r="23.08511"/><g class="c"><circle class="d" cx="23.46347" cy="21.19366" r="27.00048"/><polygon class="e" points="39.998 2.44 21.267 28.82 46.048 40.011 50.823 5.361 39.998 2.44"/><path class="e" d="M35.89156,8.52847l2.68713-3.77591a.994.994,0,0,0,.77414-1.08539l.68711-.82643a3.65591,3.65591,0,0,1,.32492,1.07807q-.17238,7.00783-.364,14.01518-.10977,4.07409-.22108,8.14813L39.751,27.14137a3.19608,3.19608,0,0,1-.02617.97386c-.179.37161-1.20642.3701-1.62679.41793-1.26838.14441-2.54691.15008-3.82161.17782q-1.77194.03855-3.54188.13766c-.794.05353-1.59159.031-2.38248.13284a7.46437,7.46437,0,0,1-1.09663.16581c-.42889-.0093-.85765-.03853-1.2841-.08478a3.27167,3.27167,0,0,0-.46714-.03056,4.20277,4.20277,0,0,0-.48386.06287c-1.39682.21337-2.8541-.17081-4.22285.18009q1.17231-1.47163,2.34511-2.94275a1.18981,1.18981,0,0,1,.66524-.61395,4.46553,4.46553,0,0,0,3.267-5.142.60421.60421,0,0,1,.24914-.47538l.72156-.57693a9.03385,9.03385,0,0,0,2.65762-3.74517l.78546-1.24776a.79376.79376,0,0,1,.83118.39495,1.14961,1.14961,0,0,1,.14092.67457,4.50019,4.50019,0,0,1-.16593.605.42011.42011,0,0,0,.19753.48282,1.74488,1.74488,0,0,0,.949-.02491,1.81263,1.81263,0,0,0,.29732-.28911,2.28523,2.28523,0,0,0,.19357-.62393,1.67093,1.67093,0,0,1,.22063-.43188c.68339-.96489,2.08164-1.13159,2.54731-2.32724a.7557.7557,0,0,0-.18689-.41428.77955.77955,0,0,0-.50132.20606,2.84126,2.84126,0,0,1-.72608.48568.79221.79221,0,0,1-.4531-.03306.82178.82178,0,0,1-.24086-.38374,1.234,1.234,0,0,1,.02573-.45087,1.6823,1.6823,0,0,1,.20918-.39009c.04419-.05614.09241-.11166.136-.16821.08984-.10784.18993-.20915.29-.30807.046-.05059.09674-.09885.14243-.14977.08422-.1059.1718-.21061.25195-.32018.03044-.06072.06656-.118.09727-.17967a2.82428,2.82428,0,0,0,.161-.60319,2.47647,2.47647,0,0,0-.10207-1.30813A.7012.7012,0,0,1,35.89156,8.52847Z"/><path class="d" d="M27.29409,29.0517c-.03308-.02423-.04909-.042-.044-.05168a1.2866,1.2866,0,0,1,.20806-.2899,2.36224,2.36224,0,0,1,.49585-.36976,12.0828,12.0828,0,0,1,2.99724-1.39,9.83589,9.83589,0,0,1,4.36942-.12023A9.95125,9.95125,0,0,1,39.218,28.24228a9.81075,9.81075,0,0,1,2.71482,3.47441,46.724,46.724,0,0,1,1.349,4.924,6.46042,6.46042,0,0,1,.231,2.79285,6.0523,6.0523,0,0,1-2.5543,3.2547,6.565,6.565,0,0,1-1.9557,1.14c-.95042.29945-2.03282.20489-2.88222.72591a23.41034,23.41034,0,0,0-1.9873-8.8337c-.2303-.44676-.48121-.88274-.74907-1.308a24.17483,24.17483,0,0,0-1.7239-2.36881,8.7159,8.7159,0,0,0-2.23375-1.94137,19.70685,19.70685,0,0,0-2.16832-1.05159,11.656,11.656,0,0,1,1.40895.77481"/><path class="f" d="M4.20268,39.95784a10.80866,10.80866,0,0,1-.4698-2.906A14.26209,14.26209,0,0,1,4.159,34.094,7.88659,7.88659,0,0,1,5.68057,31.0551a11.856,11.856,0,0,1,4.12966-3.41328,8.03619,8.03619,0,0,1,3.08334-.66141,8.75456,8.75456,0,0,1,1.47094.10022,11.41791,11.41791,0,0,1,3.022.92947c.37589.17231.85537.37276,1.31.61621A3.41776,3.41776,0,0,1,19.95575,29.636a2.32136,2.32136,0,0,1-.195,2.28963,16.54527,16.54527,0,0,1-2.69687,3.448,19.21215,19.21215,0,0,1-2.41851,2.3006,8.85968,8.85968,0,0,0-1.41816,1.15031,4.542,4.542,0,0,0-.821,1.51729,8.99391,8.99391,0,0,0-.477,2.28747,2.40505,2.40505,0,0,1-.24027,1.10831,1.64163,1.64163,0,0,1-1.082.65172,5.3095,5.3095,0,0,1-2.73322-.25845A5.47419,5.47419,0,0,1,5.631,42.87135,6.28876,6.28876,0,0,1,4.20268,39.95784Z"/><path class="g" d="M27.32394,20.10079c.98651,3.6858-.69068,5.5714-4.18114,6.23153l-.04516-.09383.07333-.07344a3.35347,3.35347,0,0,0-.96581-.55962,3.93078,3.93078,0,0,1-2.71239-5.04185,4.0774,4.0774,0,0,1,4.86657-2.5278,3.19989,3.19989,0,0,1,.86964.31585,2.54073,2.54073,0,0,1,.64377.366,3.16976,3.16976,0,0,0,.48319.44793c.06938.005.14018.0122.211.01941Z"/><path class="h" d="M15.69331,24.66462l-1.19154,1.33316a4.019,4.019,0,0,1-2.63137-.02634l-.39673-.37478a.32652.32652,0,0,1,.07693-.451c.56021-.40218,1.20628-.10569,1.80251-.22143A1.35631,1.35631,0,0,0,14.60381,23.47q-.00418-.05559-.01292-.11069a1.24883,1.24883,0,0,0-1.22671-1.27058q-.04845-.00085-.09686.00206a1.31269,1.31269,0,0,0-1.533,1.2524c-.07641.60185.22721,1.24038-.17422,1.81077a.349.349,0,0,1-.45874.08262l-.01686-.01883a1.55917,1.55917,0,0,1-.25925-.33252.25909.25909,0,0,1-.15114-.308,3.91443,3.91443,0,0,1,.03828-2.36334l1.11188-1.16966c.22342-.19443.5634-.11183.77709-.32939l1.53334.07189a3.39532,3.39532,0,0,0,.44705.24066l.31625.18334a.35844.35844,0,0,1,.26333.24567l.07632.0766a.365.365,0,0,1,.24592.26384l.178.33629q.10946.20964.216.42085l.055,1.56027C15.8147,24.28108,15.66615,24.4344,15.69331,24.66462Z"/><path class="i" d="M32.142,7.872l-.15656-1.11236c.00251-.42482-.18268-.87279.15393-1.25637l.36832-1.02763a.62744.62744,0,0,1,.94237-.00944L34.06,8.04329l.14837.20036a1.14821,1.14821,0,0,1-.28318.68169.74051.74051,0,0,1-.45027.19334C32.8227,8.92806,32.16587,8.74054,32.142,7.872Z"/><path class="j" d="M32.142,7.872,33.6586,8.91009c.43169-.072.69038-.49827,1.13086-.55641a.93538.93538,0,0,1,.48875.15409,1.20741,1.20741,0,0,1-.1867,1.24727,1.44443,1.44443,0,0,1-.60916.50215,2.02167,2.02167,0,0,1-1.03777-.05931,3.09061,3.09061,0,0,1-1.28729-.81618l-.77409-.72054c.11111-.31778-.20511-.31774-.33622-.45539Z"/><path class="k" d="M34.93441,12.36058a.8102.8102,0,0,0-.12808.33412.33917.33917,0,0,1-.36738.20837,6.77927,6.77927,0,0,1-1.06658-.52573,4.022,4.022,0,0,1-.42713-.23785c-.35729-.58467-1.41172-.696-1.15254-1.7A.57611.57611,0,0,1,32.134,10.308c.66079-.29407,1.144.09536,1.64136.42474.40046.35562.94377.20016,1.39534.38279a.591.591,0,0,1,.23332.41939.7715.7715,0,0,1-.17779.456l-.01039.01077A1.04989,1.04989,0,0,0,34.93441,12.36058Z"/><path class="l" d="M33.63469,11.1626q-.75051-.42724-1.50086-.85453.01188-.46325.02345-.9264.79357.25231,1.58713.50456a.93546.93546,0,0,1,.23477.93165A.65688.65688,0,0,1,33.63469,11.1626Z"/><path class="m" d="M31.7927,10.43953l1.57562,1.58307a.92747.92747,0,0,1-.46377.25643.83788.83788,0,0,1-.71243-.3087l-1.06-1.4825Z"/><path class="n" d="M34.89964,8.58007c-.43291.037-.58037,1.15365-1.24087.33023l.00306-.00587c.31157-.13438.21956-.44591.29754-.68281a.66.66,0,0,1,.1009-.178q.36022-.49731.721-.99394.11552.08778.23133.17519A1.17151,1.17151,0,0,1,34.89964,8.58007Z"/><path class="o" d="M32.19214,11.97033l.773.13379a1.03588,1.03588,0,0,1,.18038,1.33358.71658.71658,0,0,1-.77605.23766.31211.31211,0,0,1-.18294-.45545Z"/><path class="p" d="M39.3528,3.66717c.55559.94629.12886,1.18691-.77412,1.08544Q38.96572,4.20985,39.3528,3.66717Z"/><path class="q" d="M34.78132,7.04971l.54821-.59038.18266,1.686q-.087.27042-.3339.13261c-.26217-.34422-.05823-.78166-.2257-1.14529A.24655.24655,0,0,0,34.78132,7.04971Z"/><path class="r" d="M11.8704,25.97144l2.63137.02634A2.03071,2.03071,0,0,1,11.8704,25.97144Z"/><path class="s" d="M32.1865,13.21991a.59043.59043,0,0,0,.06213.29979,1.757,1.757,0,0,1,.2067,1.23324.7115.7115,0,0,1-.30647.38988q-.33008-.30569-.66023-.61162C31.08383,13.75211,31.63572,13.48632,32.1865,13.21991Z"/><path class="t" d="M10.71237,22.21389q-.01905,1.18179-.03816,2.36348A1.90882,1.90882,0,0,1,10.71237,22.21389Z"/><path class="u" d="M32.13941,5.50327q-.07751.62769-.15448,1.25585Q31.57,6.22008,31.154,5.68Z"/><path class="v" d="M35.23174,8.21691a.6464.6464,0,0,1,.28046-.07167l.37946.38309q.04515.23052.0906.46077c-.01042.0647-.02083.12941-.03007.1948a1.35325,1.35325,0,0,1-.21324.33126c-.04752.04587-.097.08972-.1448.13592a1.18365,1.18365,0,0,1-.53593.247.52889.52889,0,0,1-.36039-.13323l.44123-1.1955a.21071.21071,0,0,1,.09268-.35239Z"/><path class="t" d="M12.60135,20.71486l-.77726.32948Z"/><path class="w" d="M31.047,8.20577l.336.45522Q31.21519,8.43354,31.047,8.20577Z"/><path class="x" d="M33.45006,4.4662q-.471.00428-.94219.009.2781-.267.55655-.535Z"/><path class="t" d="M14.58173,21.02741l-.44711-.24068Z"/><path class="t" d="M15.16131,21.45643a.51973.51973,0,0,1-.26351-.24585Z"/><path class="t" d="M15.87746,22.554l-.21607-.42108Z"/><path class="t" d="M15.69331,24.66462l.23915-.55042Z"/><path class="t" d="M10.82523,24.8852l.25943.33273Z"/><path class="t" d="M11.10132,25.23655q.187-.00381.374-.007l.00178.00182q-.00325.18276-.00335.3654Z"/><path class="t" d="M15.48355,21.79686a.51866.51866,0,0,1-.24607-.264Z"/><path class="y" d="M37.0814,12.73265c.00627,1.07469.00627,1.07469-3.12087,3.09525-.46351-.08782-.52863-.42908-.51892-.81767.1303-.59512.59628-.85623,1.08176-1.09424.87059-.14582,1.34068-.9555,2.09748-1.29694A.51387.51387,0,0,1,37.0814,12.73265Z"/><path class="z" d="M35.24466,11.69953l-.05048-.4792a1.21936,1.21936,0,0,1,.04193-1.22278,1.48426,1.48426,0,0,1,.40322-.63157l-.00761.02023a1.28924,1.28924,0,0,1,.35352-.41278l-.00291.01557c1.50367.34475.00452,1.21162.30474,1.76556a.84107.84107,0,0,1-.3149.46773l-.01431.01806q-.17532.1796-.34209.36722l-.02872.02817A.32471.32471,0,0,1,35.24466,11.69953Z"/><path class="aa" d="M34.80912,14.281l-1.08607.8393c-.26564.223-.34162.6027-.64886.79282a1.08615,1.08615,0,0,1-.50452.10295.72309.72309,0,0,1-.424-.27621l.00317-.59767c.04577-.065.08989-.13175.1324-.19954a12.9922,12.9922,0,0,1,1.10586-1.32862,1.04911,1.04911,0,0,1,.42868-.26634,1.22922,1.22922,0,0,1,1.13228.496A.35937.35937,0,0,1,34.80912,14.281Z"/><path class="ab" d="M37.0814,12.73265q-.11527.02285-.23094.04365c-.634.08485-.90911.90118-1.63175.8061a.32443.32443,0,0,1-.09957-.31026q.04124-.15886.08624-.15887l.76573-.80575q.21555-.13962.4198-.29546l.8705-.1349Z"/><path class="ac" d="M31.85065,16.93123l-.06267-.78171.2565.00286c.592.069,1.19958-.16111,1.78189.09461a.82315.82315,0,0,1,.35072.364q-.04679.16335-.09532.32618A3.37722,3.37722,0,0,1,31.85065,16.93123Z"/><path class="ad" d="M31.85065,16.93123q1.11562.00287,2.23124.00583A1.75154,1.75154,0,0,1,31.85065,16.93123Z"/><path class="ae" d="M32.941,15.719q.391-.3.782-.59933.11883.35471.23755.70816a.51023.51023,0,0,0,.13773.31548l-.191.1683C33.44927,16.33735,33.058,16.25327,32.941,15.719Z"/><path class="ae" d="M32.14569,15.73985l.42207.05443c.08685.5376-.1136.61277-.53383.334l-.12411-.002-.12188.02335Q31.96683,15.94463,32.14569,15.73985Z"/><path class="af" d="M34.48269,12.81306q.1623-.05817.324-.11794.01711.21414.03476.42909a.27811.27811,0,0,1-.09063.4257C34.23385,13.46094,34.22944,13.1842,34.48269,12.81306Z"/><path class="ac" d="M34.0983,16.14328q.03906.23355.07843.4674l-.12821-.11469a.37241.37241,0,0,1-.17857-.36326A.43848.43848,0,0,1,34.0983,16.14328Z"/><path class="af" d="M34.93441,12.36058l.28146-.359Z"/><path class="af" d="M35.24466,11.69953q.17173-.02973.34252-.0639l-.361.35538A2.13288,2.13288,0,0,0,35.24466,11.69953Z"/><path class="af" d="M35.61577,11.6076l.34221-.36734Z"/><path class="af" d="M35.97217,11.22232q.15759-.23368.31507-.46755Q36.12956,10.98832,35.97217,11.22232Z"/><path class="ag" d="M34.78115,13.41782a.87421.87421,0,0,0,.06019-.29355,2.751,2.751,0,0,0,.36412-.01088q-.02913.19732-.0581.3949l-.22311.11789Q34.85263,13.52228,34.78115,13.41782Z"/><path class="af" d="M36.39087,12.01206l-.4198.29562Q36.181,12.15971,36.39087,12.01206Z"/><path class="ah" d="M18.61852,29.08867l-.341.307Q18.44818,29.24215,18.61852,29.08867Z"/><path class="ai" d="M26.25624,19.18136l.1031.019Z"/><path class="t" d="M11.47532,25.22956c-.24565-1.25459-1.03219-2.681.51587-3.5525a2.01182,2.01182,0,0,1,2.73968.34582,3.09337,3.09337,0,0,1,.27123,2.605c-.78254,1.44619-2.23889.96994-3.525.60348Z"/><path class="aj" d="M33.95937,8.22162q-.14847.34176-.29724.68317Q33.81045,8.56285,33.95937,8.22162Z"/><path class="ak" d="M35.50621,10.04637q-.15584.587-.31187,1.174-.7797-.0287-1.55938-.05755a.35022.35022,0,0,1,.07169-.17517c.30508-.206.263-.727.71788-.79714l.27353-.426.16117.03324C35.06448,9.90791,35.297,9.94669,35.50621,10.04637Z"/><path class="al" d="M34.42454,10.19051q-.359.39915-.718.79771.01905-.55182.03787-1.10224Q34.08447,10.0385,34.42454,10.19051Z"/><path class="am" d="M35.23174,8.21691a.55624.55624,0,0,1-.09265.35235l-.12043-.0037-.1193.0146q.02688-.72391.05325-1.44756Z"/><path class="ag" d="M34.48269,12.81306l.29864.60516.09272.12206q.10587.11745.04542.20032-.054.07414-.10207.07422l-1.02448-.36436c-.54948-.38793-.46925-.86756-.19876-1.37489Z"/><path class="an" d="M33.59416,12.07561q.0993.68806.19867,1.37551l-.09923.04916a.45039.45039,0,0,1-.72757-.06965q-.00062-.66341-.00106-1.32666.20146-.04065.403-.08148A.40051.40051,0,0,0,33.59416,12.07561Z"/><path class="ae" d="M32.966,13.43063l.72761.06961A1.3879,1.3879,0,0,1,32.36175,14.942q-.0405.0016-.08106.00084-.01576-.7119-.03234-1.42328Q32.60748,13.47526,32.966,13.43063Z"/><path class="ao" d="M35.50622,10.04637q-.32349-.12514-.647-.24946.39-.21457.78008-.43083Z"/><path class="e" d="M35.98524,8.97343q-.17661.2064-.35341.41278Q35.80841,9.17983,35.98524,8.97343Z"/><path class="e" d="M30.72478,24.768l.338.46554Z"/><path class="e" d="M31.06844,25.24059l.36033.37507Z"/><path class="e" d="M31.44251,25.62811l.43222.34244Q31.65875,25.79933,31.44251,25.62811Z"/><path class="ap" d="M34.81738,13.81482a2.42349,2.42349,0,0,1,.05645-.27477,1.75924,1.75924,0,0,1,.27408-.03186q.85029-.36566,1.70211-.73168-1.01969.75192-2.04057,1.50435Q34.8131,14.048,34.81738,13.81482Z"/><path class="aq" d="M33.87,16.13273l.1786.36329q-1.00792-.18381-2.0152-.36763.2679-.16717.53454-.33417.18624-.03727.37292-.075Q33.4056,15.92572,33.87,16.13273Z"/><path class="ah" d="M35.23587,39.06551c.18313.75775.34946,1.51783.51607,2.26614.39844,1.78943.771,3.90555-.16628,5.54127a12.46466,12.46466,0,0,1-4.02816,3.92621,9.49348,9.49348,0,0,1-3.10075,1.48974,11.43942,11.43942,0,0,1-3.814.0021c-3.56446-.39871-7.44381-.78713-10.69082-2.443a2.93786,2.93786,0,0,1-.76067-.56584c-1.21807-1.24388-1.4936-3.24671-1.59918-4.90407a16.65733,16.65733,0,0,1,.4768-4.61232,21.90065,21.90065,0,0,1,1.55069-4.40608,13.05048,13.05048,0,0,1,2.387-3.65855,17.128,17.128,0,0,1,2.4779-1.96812,7.69314,7.69314,0,0,1,1.58246-.80423c3.48538-1.43629,6.72489-.75062,9.82385,1.14372C33.17349,32.07908,34.38562,35.5472,35.23587,39.06551Z"/><circle class="ah" cx="23.41344" cy="22.25396" r="4.62733"/><circle class="f" cx="13.20895" cy="23.4491" r="2.94688"/><circle class="d" cx="33.35059" cy="23.15379" r="2.69501"/></g></svg>