<svg xmlns="http://www.w3.org/2000/svg" viewBox="0 0 55.86998 29.08098"><defs><style>.a{fill:none;stroke:#424143;stroke-linecap:round;stroke-linejoin:round;stroke-width:3.88542px;}.b{fill:#424143;}</style></defs><polyline class="a" points="15.248 27.138 2.651 14.54 15.248 1.943"/><path class="b" d="M12.76825,17.53952a1.337,1.337,0,0,0,.97852-.40137,1.6596,1.6596,0,0,0,.26953-1.03808V11.37155h2.94043q2.01563,0,2.01562,2.23242v4.42774h-.92382V13.56882a1.56605,1.56605,0,0,0-.33594-1.12305,1.28657,1.28657,0,0,0-.96-.3418h-1.8125v3.90039a2.23074,2.23074,0,0,1-.49121,1.57813,2.39662,2.39662,0,0,1-1.584.61719Z"/><path class="b" d="M20.69989,12.77585l-.15527-1.4043h.91211l.168,1.4043v1.78906l-.0127.75586-.91211.19141Z"/><path class="b" d="M28.29657,17.30026v.73145H23.06513v-.73145h3.45605V13.56882a1.566,1.566,0,0,0-.33594-1.12305,1.28957,1.28957,0,0,0-.96-.3418H23.06513v-.73242h2.36328q2.01708,0,2.0166,2.23242v3.69629Z"/><path class="b" d="M29.48407,14.79147l.13184-.80273h.792v4.043h-.92383Zm4.11621-1.22265a1.56605,1.56605,0,0,0-.33593-1.12305,1.28658,1.28658,0,0,0-.96-.3418H29.49677v-.73242h3.01172q2.01563,0,2.01562,2.23242v4.42774h-.92383Z"/><path class="b" d="M42.82294,12.13425a3.50337,3.50337,0,0,1,.62988,2.21386v6.084H42.528V14.32468q0-2.22071-1.668-2.22071H39.60028l-.22754,1.10352a3.59022,3.59022,0,0,0-.07226.67285,1.16624,1.16624,0,0,0,.16211.65332.79728.79728,0,0,0,.50976.33008l-.22754.60058a1.56715,1.56715,0,0,1-.99609-.47949,1.54109,1.54109,0,0,1-.3125-1.02051,3.94567,3.94567,0,0,1,.084-.792l.38477-1.80078h2.14746A2.15026,2.15026,0,0,1,42.82294,12.13425Z"/><path class="b" d="M47.95185,13.50827a2.51552,2.51552,0,0,1,.32421-1.4043H44.91571v-.73242h5.13672V12.104h-.88867a2.81621,2.81621,0,0,0-.28809,1.4043v4.52344h-.92382Z"/><path class="b" d="M55.87274,11.37155v.78125l-2.3164,5.87891h-.92383L54.94892,12.104H51.22821V9.42819h.85254v1.94336Z"/></svg>