<svg xmlns="http://www.w3.org/2000/svg" viewBox="0 0 67.382 29.081"><defs><style>.a{fill:none;stroke:#424143;stroke-linecap:round;stroke-linejoin:round;stroke-width:3.885px;}.b{fill:#424143;}</style></defs><polyline class="a" points="15.223 27.138 2.626 14.54 15.223 1.943"/><path class="b" d="M23.8,17.081a1.338,1.338,0,0,0,.978-.4,1.66,1.66,0,0,0,.27-1.038V10.913h2.94Q30,10.913,30,13.145v4.428h-.923V13.109a1.566,1.566,0,0,0-.336-1.122,1.282,1.282,0,0,0-.96-.342H25.967v3.9a2.227,2.227,0,0,1-.492,1.578,2.4,2.4,0,0,1-1.584.618Z"/><path class="b" d="M31.727,12.317l-.157-1.4h.912l.168,1.4v1.788l-.011.756-.912.192Z"/><path class="b" d="M39.323,16.841v.732H34.09v-.732h3.456V13.109a1.557,1.557,0,0,0-.336-1.122,1.282,1.282,0,0,0-.96-.342H34.09v-.732h2.365q2.015,0,2.016,2.232v3.7Z"/><path class="b" d="M40.511,14.333l.132-.8h.792v4.044h-.924Zm4.115-1.224a1.561,1.561,0,0,0-.336-1.122,1.279,1.279,0,0,0-.959-.342H40.522v-.732h3.013q2.015,0,2.015,2.232v4.428h-.924Z"/><path class="b" d="M53.848,11.674a3.5,3.5,0,0,1,.63,2.215v6.084h-.924V13.865q0-2.22-1.668-2.22h-1.26l-.228,1.1a3.569,3.569,0,0,0-.072.672,1.173,1.173,0,0,0,.162.654.806.806,0,0,0,.51.33l-.228.6a1.566,1.566,0,0,1-1-.48,1.539,1.539,0,0,1-.312-1.02,3.924,3.924,0,0,1,.084-.792l.384-1.8h2.148A2.15,2.15,0,0,1,53.848,11.674Z"/><path class="b" d="M58.978,13.049a2.513,2.513,0,0,1,.324-1.4h-3.36v-.732h5.136v.732H60.19a2.807,2.807,0,0,0-.288,1.4v4.524h-.924Z"/><path class="b" d="M66.9,10.913v.78l-2.316,5.88h-.924l2.316-5.928h-3.72V8.969h.852v1.944Z"/></svg>