<svg id="a08621cb-4642-4a09-a9bb-3184bc9680c8" data-name="Layer 1" xmlns="http://www.w3.org/2000/svg" viewBox="0 0 55.86998 29.08098"><defs><style>.abd8e4da-128d-44fd-8183-90894ca5a025{fill:none;stroke:#424143;stroke-linecap:round;stroke-linejoin:round;stroke-width:3.88542px;}.b0b201c7-9322-46c1-ae0a-c331d3c4f44b{fill:#424143;}</style></defs><polyline class="abd8e4da-128d-44fd-8183-90894ca5a025" points="14.693 27.138 2.096 14.54 14.693 1.943"/><path class="b0b201c7-9322-46c1-ae0a-c331d3c4f44b" d="M31.40009,13.56771a1.56338,1.56338,0,0,0-.33594-1.12207,1.2885,1.2885,0,0,0-.96-.34277H27.77606v-.73145h2.53223q2.01563,0,2.01563,2.23145V20.431h-.92383Z"/><path class="b0b201c7-9322-46c1-ae0a-c331d3c4f44b" d="M38.71356,16.88021a6.02424,6.02424,0,0,1-4.13378,1.27148l-.83985-6.78027h.8877l.4082,3.39551a3.06452,3.06452,0,0,0,.83984-.61719,2.00828,2.00828,0,0,0,.43848-.81055,5.21287,5.21287,0,0,0,.16211-1.23632l.01172-.707h.88769l-.01172.69531a3.927,3.927,0,0,1-.52832,2.09375,3.75282,3.75282,0,0,1-1.71582,1.30273l.22852,1.84766a4.07272,4.07272,0,0,0,2.85547-1.14551,4.34114,4.34114,0,0,0,.93652-3.06641l-.01269-1.75195h.9248l.01172,1.71582A4.86519,4.86519,0,0,1,38.71356,16.88021Z"/><path class="b0b201c7-9322-46c1-ae0a-c331d3c4f44b" d="M46.6452,17.2513a2.44237,2.44237,0,0,1-2.04589.91211,4.89844,4.89844,0,0,1-.9834-.10742l.0957-.73242a3.4275,3.4275,0,0,0,.81641.0957,1.66014,1.66014,0,0,0,1.46972-.68945,3.65509,3.65509,0,0,0,.47364-2.05859q0-2.61621-1.71582-2.61524a1.462,1.462,0,0,0-1.044.3711,1.90774,1.90774,0,0,0-.54.97265L42.32,18.03158H41.3952l.88868-4.668-.92383-1.99219h.96l.59961,1.44043a2.13748,2.13748,0,0,1,.76758-1.13476,2.01089,2.01089,0,0,1,1.20019-.377,2.247,2.247,0,0,1,1.80664.78516,3.93444,3.93444,0,0,1,.666,2.55078A4.159,4.159,0,0,1,46.6452,17.2513Z"/><path class="b0b201c7-9322-46c1-ae0a-c331d3c4f44b" d="M48.6911,14.79134l.13184-.80371h.792v4.044H48.6911Zm4.11621-1.22363a1.56338,1.56338,0,0,0-.33593-1.12207,1.287,1.287,0,0,0-.96-.34277H48.7038v-.73145h3.01172q2.01563,0,2.01562,2.23145v4.42871h-.92383Z"/></svg>