<svg xmlns="http://www.w3.org/2000/svg" viewBox="0 0 26.87593 16.55334"><defs><style>.a{fill:#414042;}.b,.c,.d{fill:none;stroke:#414042;stroke-miterlimit:10;}.b{stroke-width:0.87139px;}.c{stroke-width:0.96886px;}.d{stroke-width:1.03025px;}</style></defs><path class="a" d="M5.04756,7.53691a3.455,3.455,0,1,0,3.87769,3.442,2.12127,2.12127,0,0,0-.04357-.52284A15.98375,15.98375,0,0,1,5.04756,7.53691Z"/><path class="b" d="M3.87118,6.22982a5.01284,5.01284,0,1,0,6.62258,4.87979A15.69848,15.69848,0,0,1,3.87118,6.22982Z"/><path class="a" d="M20.994,7.53691a3.43457,3.43457,0,1,1-3.8777,3.39843,2.12127,2.12127,0,0,1,.04357-.52284A15.68462,15.68462,0,0,0,20.994,7.53691Z"/><path class="b" d="M22.17042,6.22982a5.01284,5.01284,0,1,1-6.62259,4.87979A15.69854,15.69854,0,0,0,22.17042,6.22982Z"/><path class="b" d="M3.87118,6.22982S7.836,11.50174,13.0208,11.50174c4.40053,0,6.97114-3.137,13.11445-9.45461"/><path class="b" d="M12.93366,8.19045a2.42917,2.42917,0,0,0-2.4399,2.527,1.13889,1.13889,0,0,0,.13071.34856,6.38123,6.38123,0,0,0,2.4399.39212,8.99856,8.99856,0,0,0,2.48346-.34856,1.20617,1.20617,0,0,0,.04357-.39212A2.64386,2.64386,0,0,0,12.93366,8.19045Z"/><path class="b" d="M8.09743,7.53691a7.052,7.052,0,0,1,9.84673,0"/><path class="c" d="M6.35465,5.66341s6.274-6.09974,13.3323,0"/><path class="d" d="M4.56829,4.00777s8.19109-7.799,16.73073,0"/><polygon class="a" points="11.714 13.811 14.415 13.811 13.021 15.989 11.714 13.811"/><path class="a" d="M25.17672,1.69858l1.69921-.52284-.34855,1.74279C26.52738,2.9621,26.13525,1.82929,25.17672,1.69858Z"/></svg>