<svg xmlns="http://www.w3.org/2000/svg" viewBox="0 0 46.8982 46.85638"><defs><style>.a{fill:#414042;}.b,.c,.d{fill:none;stroke:#414042;stroke-miterlimit:10;}.b{stroke-width:1.51503px;}.c{stroke-width:1.68449px;}.d{stroke-width:1.79122px;}</style></defs><path class="a" d="M8.829,12.92025a6.007,6.007,0,1,0,6.7419,5.98438,3.68816,3.68816,0,0,0-.07575-.909A27.78973,27.78973,0,0,1,8.829,12.92025Z"/><path class="b" d="M6.78372,10.64769A8.71551,8.71551,0,1,0,18.298,19.13188C11.55608,16.93509,6.78372,10.64769,6.78372,10.64769Z"/><path class="a" d="M36.55414,12.92025a5.97147,5.97147,0,1,1-6.7419,5.90863,3.68816,3.68816,0,0,1,.07575-.909A27.26989,27.26989,0,0,0,36.55414,12.92025Z"/><path class="b" d="M38.59944,10.64769a8.71551,8.71551,0,1,1-11.51426,8.48419C33.82708,16.93509,38.59944,10.64769,38.59944,10.64769Z"/><path class="b" d="M6.78372,10.64769s6.89341,9.166,15.90786,9.166c7.65093,0,12.12028-5.45412,22.80127-16.43812"/><path class="b" d="M22.54008,14.05652a4.22345,4.22345,0,0,0-4.2421,4.3936,1.9801,1.9801,0,0,0,.22725.606,11.09432,11.09432,0,0,0,4.2421.68177,15.64577,15.64577,0,0,0,4.31785-.606,2.09731,2.09731,0,0,0,.07575-.68177A4.59671,4.59671,0,0,0,22.54008,14.05652Z"/><path class="b" d="M14.13164,12.92025s7.87817-7.95393,17.11988,0"/><path class="c" d="M11.10157,9.66292s10.90824-10.60524,23.18,0"/><path class="d" d="M7.99575,6.78436s14.24132-13.55956,29.08866,0"/><polygon class="a" points="20.419 23.828 25.116 23.828 22.692 27.616 20.419 23.828"/><path class="a" d="M43.82631,2.76952l2.95432-.909-.606,3.03007C46.17461,4.96632,45.49285,2.99677,43.82631,2.76952Z"/><path class="a" d="M3.29914,41.93315a1.12328,1.12328,0,0,1,.07575.53027v2.80281H2.84463V42.46342q0-.909-1.13628-.909H.42058v-.4545c.45451,0,.909-.07576,1.36353-.07576a3.36207,3.36207,0,0,1,.98477.15151A1.16115,1.16115,0,0,1,3.29914,41.93315ZM.95084,45.26623H.42058V42.69067H.95084Z"/><path class="a" d="M5.11718,41.17564c.1515,0,.303-.07575.53026-.07575a.82019.82019,0,0,1,.45451.07575c.15151.07575.303.07575.37876.1515s.22726.1515.303.22725.1515.22726.22725.303.07576.22726.15151.303a1.668,1.668,0,0,1,.07575.606v1.06053a3.281,3.281,0,0,1-.07575.37876,1.27974,1.27974,0,0,1-.15151.37876.59143.59143,0,0,1-.303.303,1.65589,1.65589,0,0,1-.37876.22726,1.28914,1.28914,0,0,1-.53026.07575H5.26869c-.15151,0-.22726-.07575-.303-.07575H4.88993v-.45451a3.80225,3.80225,0,0,0,.909.1515.68294.68294,0,0,0,.37876-.07575c.07575,0,.22725-.07575.22725-.1515.07575-.07575.1515-.15151.1515-.22726.07576-.07575.07576-.1515.15151-.22725a.27828.27828,0,0,0,.07575-.22725,3.28058,3.28058,0,0,1,.07575-.37876v-.606a1.88079,1.88079,0,0,0-.07575-.68176c0-.07575-.07575-.15151-.1515-.22726s-.07576-.1515-.15151-.22725-.1515-.07575-.303-.15151a1.668,1.668,0,0,0-.606-.07576.96083.96083,0,0,0-.45451.07575c-.1515,0-.22725.07576-.303.07576l-.07575.07575v-.45451a.07419.07419,0,0,0,.07575-.07575A.7836.7836,0,0,1,5.11718,41.17564Z"/><path class="a" d="M8.223,41.17564h.75752a1.47676,1.47676,0,0,1,.606.07575,1.07664,1.07664,0,0,1,.45451.1515,1.04563,1.04563,0,0,1,.303.22725,1.13921,1.13921,0,0,1,.303.83327v2.80282H10.1168V42.46341c0-.53026-.37876-.83327-1.13628-.83327H8.223Z"/><path class="a" d="M14.88915,41.17564v.37875a.89111.89111,0,0,0-.68176.909v2.80281h-.53026V42.46342a.68291.68291,0,0,1,.07575-.37876c0-.07575.07575-.15151.07575-.22726q.11362-.22725.22725-.22725h-2.121v-.37876h2.95431Z"/><path class="a" d="M19.0555,41.93315a1.12328,1.12328,0,0,1,.07575.53027v2.80281H18.601V42.46342c0-.53027-.37876-.83327-1.13628-.83327H16.17693v-.45451c.45451,0,.909-.07575,1.36353-.07575a3.362,3.362,0,0,1,.98477.1515A1.00337,1.00337,0,0,1,19.0555,41.93315Zm-2.34831,3.33308h-.53026V42.69067h.53026Z"/><path class="a" d="M23.67635,41.93315a1.12328,1.12328,0,0,1,.07575.53027v2.80281h-.53026V42.46342c0-.53027-.37876-.83327-1.13628-.83327H20.79779v-.45451c.45451,0,.909-.07575,1.36353-.07575a3.362,3.362,0,0,1,.98477.1515C23.37334,41.32715,23.52485,41.63014,23.67635,41.93315Zm-2.424,3.33308H20.722V42.69067h.53027Z"/><path class="a" d="M29.282,45.26623a.45547.45547,0,0,1-.303-.07575V44.736h.22726c.303,0,.45451-.1515.45451-.53026V41.5544l-.45451.07575v-.45451a11.21143,11.21143,0,0,1,1.515-.07575,2.82532,2.82532,0,0,1,.909.1515.84822.84822,0,0,1,.53027.606,1.12321,1.12321,0,0,1,.07575.53026v2.80281H31.706V42.38767c0-.53026-.37876-.83327-1.13627-.83327h-.53027v2.65131a1.131,1.131,0,0,1-.22725.75752C29.888,45.19048,29.585,45.26623,29.282,45.26623Z"/><path class="a" d="M33.97858,43.9027V41.25139h.53027v2.121l-.37876.53027Z"/><path class="a" d="M36.02388,43.9027V41.25139h.53026v2.121l-.37875.53027Z"/><path class="a" d="M37.76617,41.17564h.75752a1.47676,1.47676,0,0,1,.606.07575,1.07669,1.07669,0,0,1,.45451.1515,1.04591,1.04591,0,0,1,.303.22725,1.13925,1.13925,0,0,1,.303.83327v2.80282H39.66V42.46341c0-.53026-.37876-.83327-1.13627-.83327h-.75752Z"/><path class="a" d="M43.90206,45.11473v.07575H43.3718v-.07575a1.88264,1.88264,0,0,1,.07575-.606,3.08757,3.08757,0,0,0,.1515-.53026c.07575-.22725.15151-.53026.22726-.83327l.45451-1.515H41.781v-.37876h2.95432v.303l-.45451,1.59079c-.07575.22725-.07575.37876-.1515.45451,0,.1515-.07575.22725-.07575.37876s-.07576.22725-.07576.303-.07575.22725-.07575.303Zm-1.515,1.66653h-.53027V42.84217H42.387Z"/><path class="a" d="M3.29914,41.93315a1.12328,1.12328,0,0,1,.07575.53027v2.80281H2.84463V42.46342q0-.909-1.13628-.909H.42058v-.4545c.45451,0,.909-.07576,1.36353-.07576a3.36207,3.36207,0,0,1,.98477.15151A1.16115,1.16115,0,0,1,3.29914,41.93315ZM.95084,45.26623H.42058V42.69067H.95084Z"/><path class="a" d="M5.11718,41.17564c.1515,0,.303-.07575.53026-.07575a.82019.82019,0,0,1,.45451.07575c.15151.07575.303.07575.37876.1515s.22726.1515.303.22725.1515.22726.22725.303.07576.22726.15151.303a1.668,1.668,0,0,1,.07575.606v1.06053a3.281,3.281,0,0,1-.07575.37876,1.27974,1.27974,0,0,1-.15151.37876.59143.59143,0,0,1-.303.303,1.65589,1.65589,0,0,1-.37876.22726,1.28914,1.28914,0,0,1-.53026.07575H5.26869c-.15151,0-.22726-.07575-.303-.07575H4.88993v-.45451a3.80225,3.80225,0,0,0,.909.1515.68294.68294,0,0,0,.37876-.07575c.07575,0,.22725-.07575.22725-.1515.07575-.07575.1515-.15151.1515-.22726.07576-.07575.07576-.1515.15151-.22725a.27828.27828,0,0,0,.07575-.22725,3.28058,3.28058,0,0,1,.07575-.37876v-.606a1.88079,1.88079,0,0,0-.07575-.68176c0-.07575-.07575-.15151-.1515-.22726s-.07576-.1515-.15151-.22725-.1515-.07575-.303-.15151a1.668,1.668,0,0,0-.606-.07576.96083.96083,0,0,0-.45451.07575c-.1515,0-.22725.07576-.303.07576l-.07575.07575v-.45451a.07419.07419,0,0,0,.07575-.07575A.7836.7836,0,0,1,5.11718,41.17564Z"/><path class="a" d="M8.223,41.17564h.75752a1.47676,1.47676,0,0,1,.606.07575,1.07664,1.07664,0,0,1,.45451.1515,1.04563,1.04563,0,0,1,.303.22725,1.13921,1.13921,0,0,1,.303.83327v2.80282H10.1168V42.46341c0-.53026-.37876-.83327-1.13628-.83327H8.223Z"/><path class="a" d="M14.88915,41.17564v.37875a.89111.89111,0,0,0-.68176.909v2.80281h-.53026V42.46342a.68291.68291,0,0,1,.07575-.37876c0-.07575.07575-.15151.07575-.22726q.11362-.22725.22725-.22725h-2.121v-.37876h2.95431Z"/><path class="a" d="M19.0555,41.93315a1.12328,1.12328,0,0,1,.07575.53027v2.80281H18.601V42.46342c0-.53027-.37876-.83327-1.13628-.83327H16.17693v-.45451c.45451,0,.909-.07575,1.36353-.07575a3.362,3.362,0,0,1,.98477.1515A1.00337,1.00337,0,0,1,19.0555,41.93315Zm-2.34831,3.33308h-.53026V42.69067h.53026Z"/><path class="a" d="M23.67635,41.93315a1.12328,1.12328,0,0,1,.07575.53027v2.80281h-.53026V42.46342c0-.53027-.37876-.83327-1.13628-.83327H20.79779v-.45451c.45451,0,.909-.07575,1.36353-.07575a3.362,3.362,0,0,1,.98477.1515C23.37334,41.32715,23.52485,41.63014,23.67635,41.93315Zm-2.424,3.33308H20.722V42.69067h.53027Z"/><path class="a" d="M29.282,45.26623a.45547.45547,0,0,1-.303-.07575V44.736h.22726c.303,0,.45451-.1515.45451-.53026V41.5544l-.45451.07575v-.45451a11.21143,11.21143,0,0,1,1.515-.07575,2.82532,2.82532,0,0,1,.909.1515.84822.84822,0,0,1,.53027.606,1.12321,1.12321,0,0,1,.07575.53026v2.80281H31.706V42.38767c0-.53026-.37876-.83327-1.13627-.83327h-.53027v2.65131a1.131,1.131,0,0,1-.22725.75752C29.888,45.19048,29.585,45.26623,29.282,45.26623Z"/><path class="a" d="M33.97858,43.9027V41.25139h.53027v2.121l-.37876.53027Z"/><path class="a" d="M36.02388,43.9027V41.25139h.53026v2.121l-.37875.53027Z"/><path class="a" d="M37.76617,41.17564h.75752a1.47676,1.47676,0,0,1,.606.07575,1.07669,1.07669,0,0,1,.45451.1515,1.04591,1.04591,0,0,1,.303.22725,1.13925,1.13925,0,0,1,.303.83327v2.80282H39.66V42.46341c0-.53026-.37876-.83327-1.13627-.83327h-.75752Z"/><path class="a" d="M43.90206,45.11473v.07575H43.3718v-.07575a1.88264,1.88264,0,0,1,.07575-.606,3.08757,3.08757,0,0,0,.1515-.53026c.07575-.22725.15151-.53026.22726-.83327l.45451-1.515H41.781v-.37876h2.95432v.303l-.45451,1.59079c-.07575.22725-.07575.37876-.1515.45451,0,.1515-.07575.22725-.07575.37876s-.07576.22725-.07576.303-.07575.22725-.07575.303Zm-1.515,1.66653h-.53027V42.84217H42.387Z"/><path class="a" d="M3.29914,41.93315a1.12328,1.12328,0,0,1,.07575.53027v2.80281H2.84463V42.46342q0-.909-1.13628-.909H.42058v-.4545c.45451,0,.909-.07576,1.36353-.07576a3.36207,3.36207,0,0,1,.98477.15151A1.16115,1.16115,0,0,1,3.29914,41.93315ZM.95084,45.26623H.42058V42.69067H.95084Z"/><path class="a" d="M5.11718,41.17564c.1515,0,.303-.07575.53026-.07575a.82019.82019,0,0,1,.45451.07575c.15151.07575.303.07575.37876.1515s.22726.1515.303.22725.1515.22726.22725.303.07576.22726.15151.303a1.668,1.668,0,0,1,.07575.606v1.06053a3.281,3.281,0,0,1-.07575.37876,1.27974,1.27974,0,0,1-.15151.37876.59143.59143,0,0,1-.303.303,1.65589,1.65589,0,0,1-.37876.22726,1.28914,1.28914,0,0,1-.53026.07575H5.26869c-.15151,0-.22726-.07575-.303-.07575H4.88993v-.45451a3.80225,3.80225,0,0,0,.909.1515.68294.68294,0,0,0,.37876-.07575c.07575,0,.22725-.07575.22725-.1515.07575-.07575.1515-.15151.1515-.22726.07576-.07575.07576-.1515.15151-.22725a.27828.27828,0,0,0,.07575-.22725,3.28058,3.28058,0,0,1,.07575-.37876v-.606a1.88079,1.88079,0,0,0-.07575-.68176c0-.07575-.07575-.15151-.1515-.22726s-.07576-.1515-.15151-.22725-.1515-.07575-.303-.15151a1.668,1.668,0,0,0-.606-.07576.96083.96083,0,0,0-.45451.07575c-.1515,0-.22725.07576-.303.07576l-.07575.07575v-.45451a.07419.07419,0,0,0,.07575-.07575A.7836.7836,0,0,1,5.11718,41.17564Z"/><path class="a" d="M8.223,41.17564h.75752a1.47676,1.47676,0,0,1,.606.07575,1.07664,1.07664,0,0,1,.45451.1515,1.04563,1.04563,0,0,1,.303.22725,1.13921,1.13921,0,0,1,.303.83327v2.80282H10.1168V42.46341c0-.53026-.37876-.83327-1.13628-.83327H8.223Z"/><path class="a" d="M14.88915,41.17564v.37875a.89111.89111,0,0,0-.68176.909v2.80281h-.53026V42.46342a.68291.68291,0,0,1,.07575-.37876c0-.07575.07575-.15151.07575-.22726q.11362-.22725.22725-.22725h-2.121v-.37876h2.95431Z"/><path class="a" d="M19.0555,41.93315a1.12328,1.12328,0,0,1,.07575.53027v2.80281H18.601V42.46342c0-.53027-.37876-.83327-1.13628-.83327H16.17693v-.45451c.45451,0,.909-.07575,1.36353-.07575a3.362,3.362,0,0,1,.98477.1515A1.00337,1.00337,0,0,1,19.0555,41.93315Zm-2.34831,3.33308h-.53026V42.69067h.53026Z"/><path class="a" d="M23.67635,41.93315a1.12328,1.12328,0,0,1,.07575.53027v2.80281h-.53026V42.46342c0-.53027-.37876-.83327-1.13628-.83327H20.79779v-.45451c.45451,0,.909-.07575,1.36353-.07575a3.362,3.362,0,0,1,.98477.1515C23.37334,41.32715,23.52485,41.63014,23.67635,41.93315Zm-2.424,3.33308H20.722V42.69067h.53027Z"/><path class="a" d="M29.282,45.26623a.45547.45547,0,0,1-.303-.07575V44.736h.22726c.303,0,.45451-.1515.45451-.53026V41.5544l-.45451.07575v-.45451a11.21143,11.21143,0,0,1,1.515-.07575,2.82532,2.82532,0,0,1,.909.1515.84822.84822,0,0,1,.53027.606,1.12321,1.12321,0,0,1,.07575.53026v2.80281H31.706V42.38767c0-.53026-.37876-.83327-1.13627-.83327h-.53027v2.65131a1.131,1.131,0,0,1-.22725.75752C29.888,45.19048,29.585,45.26623,29.282,45.26623Z"/><path class="a" d="M33.97858,43.9027V41.25139h.53027v2.121l-.37876.53027Z"/><path class="a" d="M36.02388,43.9027V41.25139h.53026v2.121l-.37875.53027Z"/><path class="a" d="M37.76617,41.17564h.75752a1.47676,1.47676,0,0,1,.606.07575,1.07669,1.07669,0,0,1,.45451.1515,1.04591,1.04591,0,0,1,.303.22725,1.13925,1.13925,0,0,1,.303.83327v2.80282H39.66V42.46341c0-.53026-.37876-.83327-1.13627-.83327h-.75752Z"/><path class="a" d="M43.90206,45.11473v.07575H43.3718v-.07575a1.88264,1.88264,0,0,1,.07575-.606,3.08757,3.08757,0,0,0,.1515-.53026c.07575-.22725.15151-.53026.22726-.83327l.45451-1.515H41.781v-.37876h2.95432v.303l-.45451,1.59079c-.07575.22725-.07575.37876-.1515.45451,0,.1515-.07575.22725-.07575.37876s-.07576.22725-.07576.303-.07575.22725-.07575.303Zm-1.515,1.66653h-.53027V42.84217H42.387Z"/><path class="a" d="M3.29914,41.93315a1.12328,1.12328,0,0,1,.07575.53027v2.80281H2.84463V42.46342q0-.909-1.13628-.909H.42058v-.4545c.45451,0,.909-.07576,1.36353-.07576a3.36207,3.36207,0,0,1,.98477.15151A1.16115,1.16115,0,0,1,3.29914,41.93315ZM.95084,45.26623H.42058V42.69067H.95084Z"/><path class="a" d="M5.11718,41.17564c.1515,0,.303-.07575.53026-.07575a.82019.82019,0,0,1,.45451.07575c.15151.07575.303.07575.37876.1515s.22726.1515.303.22725.1515.22726.22725.303.07576.22726.15151.303a1.668,1.668,0,0,1,.07575.606v1.06053a3.281,3.281,0,0,1-.07575.37876,1.27974,1.27974,0,0,1-.15151.37876.59143.59143,0,0,1-.303.303,1.65589,1.65589,0,0,1-.37876.22726,1.28914,1.28914,0,0,1-.53026.07575H5.26869c-.15151,0-.22726-.07575-.303-.07575H4.88993v-.45451a3.80225,3.80225,0,0,0,.909.1515.68294.68294,0,0,0,.37876-.07575c.07575,0,.22725-.07575.22725-.1515.07575-.07575.1515-.15151.1515-.22726.07576-.07575.07576-.1515.15151-.22725a.27828.27828,0,0,0,.07575-.22725,3.28058,3.28058,0,0,1,.07575-.37876v-.606a1.88079,1.88079,0,0,0-.07575-.68176c0-.07575-.07575-.15151-.1515-.22726s-.07576-.1515-.15151-.22725-.1515-.07575-.303-.15151a1.668,1.668,0,0,0-.606-.07576.96083.96083,0,0,0-.45451.07575c-.1515,0-.22725.07576-.303.07576l-.07575.07575v-.45451a.07419.07419,0,0,0,.07575-.07575A.7836.7836,0,0,1,5.11718,41.17564Z"/><path class="a" d="M8.223,41.17564h.75752a1.47676,1.47676,0,0,1,.606.07575,1.07664,1.07664,0,0,1,.45451.1515,1.04563,1.04563,0,0,1,.303.22725,1.13921,1.13921,0,0,1,.303.83327v2.80282H10.1168V42.46341c0-.53026-.37876-.83327-1.13628-.83327H8.223Z"/><path class="a" d="M14.88915,41.17564v.37875a.89111.89111,0,0,0-.68176.909v2.80281h-.53026V42.46342a.68291.68291,0,0,1,.07575-.37876c0-.07575.07575-.15151.07575-.22726q.11362-.22725.22725-.22725h-2.121v-.37876h2.95431Z"/><path class="a" d="M19.0555,41.93315a1.12328,1.12328,0,0,1,.07575.53027v2.80281H18.601V42.46342c0-.53027-.37876-.83327-1.13628-.83327H16.17693v-.45451c.45451,0,.909-.07575,1.36353-.07575a3.362,3.362,0,0,1,.98477.1515A1.00337,1.00337,0,0,1,19.0555,41.93315Zm-2.34831,3.33308h-.53026V42.69067h.53026Z"/><path class="a" d="M23.67635,41.93315a1.12328,1.12328,0,0,1,.07575.53027v2.80281h-.53026V42.46342c0-.53027-.37876-.83327-1.13628-.83327H20.79779v-.45451c.45451,0,.909-.07575,1.36353-.07575a3.362,3.362,0,0,1,.98477.1515C23.37334,41.32715,23.52485,41.63014,23.67635,41.93315Zm-2.424,3.33308H20.722V42.69067h.53027Z"/><path class="a" d="M29.282,45.26623a.45547.45547,0,0,1-.303-.07575V44.736h.22726c.303,0,.45451-.1515.45451-.53026V41.5544l-.45451.07575v-.45451a11.21143,11.21143,0,0,1,1.515-.07575,2.82532,2.82532,0,0,1,.909.1515.84822.84822,0,0,1,.53027.606,1.12321,1.12321,0,0,1,.07575.53026v2.80281H31.706V42.38767c0-.53026-.37876-.83327-1.13627-.83327h-.53027v2.65131a1.131,1.131,0,0,1-.22725.75752C29.888,45.19048,29.585,45.26623,29.282,45.26623Z"/><path class="a" d="M33.97858,43.9027V41.25139h.53027v2.121l-.37876.53027Z"/><path class="a" d="M36.02388,43.9027V41.25139h.53026v2.121l-.37875.53027Z"/><path class="a" d="M37.76617,41.17564h.75752a1.47676,1.47676,0,0,1,.606.07575,1.07669,1.07669,0,0,1,.45451.1515,1.04591,1.04591,0,0,1,.303.22725,1.13925,1.13925,0,0,1,.303.83327v2.80282H39.66V42.46341c0-.53026-.37876-.83327-1.13627-.83327h-.75752Z"/><path class="a" d="M43.90206,45.11473v.07575H43.3718v-.07575a1.88264,1.88264,0,0,1,.07575-.606,3.08757,3.08757,0,0,0,.1515-.53026c.07575-.22725.15151-.53026.22726-.83327l.45451-1.515H41.781v-.37876h2.95432v.303l-.45451,1.59079c-.07575.22725-.07575.37876-.1515.45451,0,.1515-.07575.22725-.07575.37876s-.07576.22725-.07576.303-.07575.22725-.07575.303Zm-1.515,1.66653h-.53027V42.84217H42.387Z"/><path d="M2.08711,33.0702H4.73842V34.055l-.68176,2.34831h0l-.45451,1.96954h-1.515l.45451-2.0453.606-2.04529H.49633V32.00968H2.08711Z"/><path d="M6.55646,32.46419H7.69274c-.1515.83327-.303,1.59078-.37876,2.3483H5.8747v-.07575A10.44768,10.44768,0,0,1,6.55646,32.46419Zm2.0453,0H9.738c-.15151.83327-.303,1.59078-.37876,2.3483H7.99575L7.92,34.73674Q8.3745,33.14594,8.60176,32.46419Z"/><path d="M11.25307,36.70628V33.146h1.59079V35.57l-.909,1.13627Z"/><path d="M16.8587,33.0702c.22725,0,.45451-.07575.68176-.07575a1.668,1.668,0,0,1,.606.07575,3.69358,3.69358,0,0,1,.53026.22726,1.11344,1.11344,0,0,1,.37876.45451,3.93512,3.93512,0,0,1,.303,1.818,3.13494,3.13494,0,0,1-.606,2.04529,2.217,2.217,0,0,1-1.74229.75752,3.80241,3.80241,0,0,1-.909-.1515,1.64962,1.64962,0,0,1-.68176-.53026,1.728,1.728,0,0,1-.45452-.909,2.94445,2.94445,0,0,1-.1515-1.13627V33.0702h1.59079v2.57556c0,.98477.22725,1.515.68176,1.515a.56964.56964,0,0,0,.53026-.37876,2.26325,2.26325,0,0,0,.15151-1.13627,3.69017,3.69017,0,0,0-.15151-1.13628.50719.50719,0,0,0-.53026-.303H16.8587Z"/><path d="M25.34289,33.146a10.17653,10.17653,0,0,1,1.43928-.07575,3.70275,3.70275,0,0,1,.98478.07575c.22725.07576.45451.07576.606.22726a.75626.75626,0,0,1,.37876.303,1.65569,1.65569,0,0,1,.22725.37876c.07575.1515.07575.303.15151.45451v3.93909H27.53969V35.1155c0-.53026-.303-.75752-.83327-.75752a10.17653,10.17653,0,0,0-1.43928.07575V33.146Z"/><path d="M32.69081,38.37282H31.1V33.0702h1.59079Z"/><path d="M38.59944,33.0702v1.13628a.74957.74957,0,0,0-.53026.37876,1.42691,1.42691,0,0,0-.15151.606v3.18157H36.32689V35.19125a1.08526,1.08526,0,0,1,.37876-.83327H34.20584V33.146h4.3936Z"/><path d="M41.3265,33.0702a1.0949,1.0949,0,0,1,.15151.53026h.07575l.22725-.22725c.07575-.07575.22726-.1515.303-.22726s.22725-.07575.37876-.1515a1.47676,1.47676,0,0,1,.606-.07575,1.42706,1.42706,0,0,1,.606.1515,1.89905,1.89905,0,0,1,.53027.303,1.221,1.221,0,0,1,.303.53027,3.818,3.818,0,0,1,.22726,1.43928v2.95432H42.23552v-1.212h.909V35.34276a1.30229,1.30229,0,0,0-.07575-.606c-.07575-.15151-.07575-.22726-.1515-.303a.58977.58977,0,0,0-.53026-.22725.57264.57264,0,0,0-.303.07575c-.07575,0-.15151.07575-.22726.1515-.1515.1515-.22725.22726-.22725.303v.07575l-.1515,3.56032H39.88722l.303-3.33307v-.53027A4.28928,4.28928,0,0,0,39.963,33.146H41.3265Z"/><path d="M2.08711,33.0702H4.73842V34.055l-.68176,2.34831h0l-.45451,1.96954h-1.515l.45451-2.0453.606-2.04529H.49633V32.00968H2.08711Z"/><path d="M6.55646,32.46419H7.69274c-.1515.83327-.303,1.59078-.37876,2.3483H5.8747v-.07575A10.44768,10.44768,0,0,1,6.55646,32.46419Zm2.0453,0H9.738c-.15151.83327-.303,1.59078-.37876,2.3483H7.99575L7.92,34.73674Q8.3745,33.14594,8.60176,32.46419Z"/><path d="M11.25307,36.70628V33.146h1.59079V35.57l-.909,1.13627Z"/><path d="M16.8587,33.0702c.22725,0,.45451-.07575.68176-.07575a1.668,1.668,0,0,1,.606.07575,3.69358,3.69358,0,0,1,.53026.22726,1.11344,1.11344,0,0,1,.37876.45451,3.93512,3.93512,0,0,1,.303,1.818,3.13494,3.13494,0,0,1-.606,2.04529,2.217,2.217,0,0,1-1.74229.75752,3.80241,3.80241,0,0,1-.909-.1515,1.64962,1.64962,0,0,1-.68176-.53026,1.728,1.728,0,0,1-.45452-.909,2.94445,2.94445,0,0,1-.1515-1.13627V33.0702h1.59079v2.57556c0,.98477.22725,1.515.68176,1.515a.56964.56964,0,0,0,.53026-.37876,2.26325,2.26325,0,0,0,.15151-1.13627,3.69017,3.69017,0,0,0-.15151-1.13628.50719.50719,0,0,0-.53026-.303H16.8587Z"/><path d="M25.34289,33.146a10.17653,10.17653,0,0,1,1.43928-.07575,3.70275,3.70275,0,0,1,.98478.07575c.22725.07576.45451.07576.606.22726a.75626.75626,0,0,1,.37876.303,1.65569,1.65569,0,0,1,.22725.37876c.07575.1515.07575.303.15151.45451v3.93909H27.53969V35.1155c0-.53026-.303-.75752-.83327-.75752a10.17653,10.17653,0,0,0-1.43928.07575V33.146Z"/><path d="M32.69081,38.37282H31.1V33.0702h1.59079Z"/><path d="M38.59944,33.0702v1.13628a.74957.74957,0,0,0-.53026.37876,1.42691,1.42691,0,0,0-.15151.606v3.18157H36.32689V35.19125a1.08526,1.08526,0,0,1,.37876-.83327H34.20584V33.146h4.3936Z"/><path d="M41.3265,33.0702a1.0949,1.0949,0,0,1,.15151.53026h.07575l.22725-.22725c.07575-.07575.22726-.1515.303-.22726s.22725-.07575.37876-.1515a1.47676,1.47676,0,0,1,.606-.07575,1.42706,1.42706,0,0,1,.606.1515,1.89905,1.89905,0,0,1,.53027.303,1.221,1.221,0,0,1,.303.53027,3.818,3.818,0,0,1,.22726,1.43928v2.95432H42.23552v-1.212h.909V35.34276a1.30229,1.30229,0,0,0-.07575-.606c-.07575-.15151-.07575-.22726-.1515-.303a.58977.58977,0,0,0-.53026-.22725.57264.57264,0,0,0-.303.07575c-.07575,0-.15151.07575-.22726.1515-.1515.1515-.22725.22726-.22725.303v.07575l-.1515,3.56032H39.88722l.303-3.33307v-.53027A4.28928,4.28928,0,0,0,39.963,33.146H41.3265Z"/><path d="M2.08711,33.0702H4.73842V34.055l-.68176,2.34831h0l-.45451,1.96954h-1.515l.45451-2.0453.606-2.04529H.49633V32.00968H2.08711Z"/><path d="M6.55646,32.46419H7.69274c-.1515.83327-.303,1.59078-.37876,2.3483H5.8747v-.07575A10.44768,10.44768,0,0,1,6.55646,32.46419Zm2.0453,0H9.738c-.15151.83327-.303,1.59078-.37876,2.3483H7.99575L7.92,34.73674Q8.3745,33.14594,8.60176,32.46419Z"/><path d="M11.25307,36.70628V33.146h1.59079V35.57l-.909,1.13627Z"/><path d="M16.8587,33.0702c.22725,0,.45451-.07575.68176-.07575a1.668,1.668,0,0,1,.606.07575,3.69358,3.69358,0,0,1,.53026.22726,1.11344,1.11344,0,0,1,.37876.45451,3.93512,3.93512,0,0,1,.303,1.818,3.13494,3.13494,0,0,1-.606,2.04529,2.217,2.217,0,0,1-1.74229.75752,3.80241,3.80241,0,0,1-.909-.1515,1.64962,1.64962,0,0,1-.68176-.53026,1.728,1.728,0,0,1-.45452-.909,2.94445,2.94445,0,0,1-.1515-1.13627V33.0702h1.59079v2.57556c0,.98477.22725,1.515.68176,1.515a.56964.56964,0,0,0,.53026-.37876,2.26325,2.26325,0,0,0,.15151-1.13627,3.69017,3.69017,0,0,0-.15151-1.13628.50719.50719,0,0,0-.53026-.303H16.8587Z"/><path d="M25.34289,33.146a10.17653,10.17653,0,0,1,1.43928-.07575,3.70275,3.70275,0,0,1,.98478.07575c.22725.07576.45451.07576.606.22726a.75626.75626,0,0,1,.37876.303,1.65569,1.65569,0,0,1,.22725.37876c.07575.1515.07575.303.15151.45451v3.93909H27.53969V35.1155c0-.53026-.303-.75752-.83327-.75752a10.17653,10.17653,0,0,0-1.43928.07575V33.146Z"/><path d="M32.69081,38.37282H31.1V33.0702h1.59079Z"/><path d="M38.59944,33.0702v1.13628a.74957.74957,0,0,0-.53026.37876,1.42691,1.42691,0,0,0-.15151.606v3.18157H36.32689V35.19125a1.08526,1.08526,0,0,1,.37876-.83327H34.20584V33.146h4.3936Z"/><path d="M41.3265,33.0702a1.0949,1.0949,0,0,1,.15151.53026h.07575l.22725-.22725c.07575-.07575.22726-.1515.303-.22726s.22725-.07575.37876-.1515a1.47676,1.47676,0,0,1,.606-.07575,1.42706,1.42706,0,0,1,.606.1515,1.89905,1.89905,0,0,1,.53027.303,1.221,1.221,0,0,1,.303.53027,3.818,3.818,0,0,1,.22726,1.43928v2.95432H42.23552v-1.212h.909V35.34276a1.30229,1.30229,0,0,0-.07575-.606c-.07575-.15151-.07575-.22726-.1515-.303a.58977.58977,0,0,0-.53026-.22725.57264.57264,0,0,0-.303.07575c-.07575,0-.15151.07575-.22726.1515-.1515.1515-.22725.22726-.22725.303v.07575l-.1515,3.56032H39.88722l.303-3.33307v-.53027A4.28928,4.28928,0,0,0,39.963,33.146H41.3265Z"/><path class="a" d="M2.08711,33.0702H4.73842V34.055l-.68176,2.34831h0l-.45451,1.96954h-1.515l.45451-2.0453.606-2.04529H.49633V32.00968H2.08711Z"/><path class="a" d="M6.55646,32.46419H7.69274c-.1515.83327-.303,1.59078-.37876,2.3483H5.8747v-.07575A10.44768,10.44768,0,0,1,6.55646,32.46419Zm2.0453,0H9.738c-.15151.83327-.303,1.59078-.37876,2.3483H7.99575L7.92,34.73674Q8.3745,33.14594,8.60176,32.46419Z"/><path class="a" d="M11.25307,36.70628V33.146h1.59079V35.57l-.909,1.13627Z"/><path class="a" d="M16.8587,33.0702c.22725,0,.45451-.07575.68176-.07575a1.668,1.668,0,0,1,.606.07575,3.69358,3.69358,0,0,1,.53026.22726,1.11344,1.11344,0,0,1,.37876.45451,3.93512,3.93512,0,0,1,.303,1.818,3.13494,3.13494,0,0,1-.606,2.04529,2.217,2.217,0,0,1-1.74229.75752,3.80241,3.80241,0,0,1-.909-.1515,1.64962,1.64962,0,0,1-.68176-.53026,1.728,1.728,0,0,1-.45452-.909,2.94445,2.94445,0,0,1-.1515-1.13627V33.0702h1.59079v2.57556c0,.98477.22725,1.515.68176,1.515a.56964.56964,0,0,0,.53026-.37876,2.26325,2.26325,0,0,0,.15151-1.13627,3.69017,3.69017,0,0,0-.15151-1.13628.50719.50719,0,0,0-.53026-.303H16.8587Z"/><path class="a" d="M25.34289,33.146a10.17653,10.17653,0,0,1,1.43928-.07575,3.70275,3.70275,0,0,1,.98478.07575c.22725.07576.45451.07576.606.22726a.75626.75626,0,0,1,.37876.303,1.65569,1.65569,0,0,1,.22725.37876c.07575.1515.07575.303.15151.45451v3.93909H27.53969V35.1155c0-.53026-.303-.75752-.83327-.75752a10.17653,10.17653,0,0,0-1.43928.07575V33.146Z"/><path class="a" d="M32.69081,38.37282H31.1V33.0702h1.59079Z"/><path class="a" d="M38.59944,33.0702v1.13628a.74957.74957,0,0,0-.53026.37876,1.42691,1.42691,0,0,0-.15151.606v3.18157H36.32689V35.19125a1.08526,1.08526,0,0,1,.37876-.83327H34.20584V33.146h4.3936Z"/><path class="a" d="M41.3265,33.0702a1.0949,1.0949,0,0,1,.15151.53026h.07575l.22725-.22725c.07575-.07575.22726-.1515.303-.22726s.22725-.07575.37876-.1515a1.47676,1.47676,0,0,1,.606-.07575,1.42706,1.42706,0,0,1,.606.1515,1.89905,1.89905,0,0,1,.53027.303,1.221,1.221,0,0,1,.303.53027,3.818,3.818,0,0,1,.22726,1.43928v2.95432H42.23552v-1.212h.909V35.34276a1.30229,1.30229,0,0,0-.07575-.606c-.07575-.15151-.07575-.22726-.1515-.303a.58977.58977,0,0,0-.53026-.22725.57264.57264,0,0,0-.303.07575c-.07575,0-.15151.07575-.22726.1515-.1515.1515-.22725.22726-.22725.303v.07575l-.1515,3.56032H39.88722l.303-3.33307v-.53027A4.28928,4.28928,0,0,0,39.963,33.146H41.3265Z"/></svg>